<svg width="150" height="106" viewBox="0 0 150 106" fill="none" xmlns="http://www.w3.org/2000/svg">
<path d="M66.5617 47.8072V33.981H82.0248V47.8072H66.5617ZM82.0248 0V14.2988H66.5617V0H82.0248ZM100.306 34.0073V47.8334H84.8434V34.0073H100.306ZM63.7475 17.135V31.1974H48.2845V17.135H63.7475ZM82.0291 17.135V31.1974H66.5617V17.135H82.0291ZM146.954 40.5418L150 42.6514L147.89 46.6517C146.814 48.8054 145.317 50.7212 143.487 52.2857C141.657 53.8501 139.532 55.0315 137.237 55.7597L137.11 55.7947C133.681 56.8331 130.105 57.3076 126.523 57.1997H126.567C120.615 72.12 110.408 84.2917 97.4528 92.5288L97.1552 92.7082C84.3007 100.459 68.7764 105.046 52.1798 105.046C51.3044 105.046 50.4378 105.033 49.5668 105.007L49.6938 105.011C32.5077 105.011 19.5394 99.8554 10.7889 89.5438C6.4929 84.21 3.39951 78.0113 1.72026 71.3716L1.65023 71.0389C0.542797 66.9277 -0.0120936 62.6873 0.000199861 58.4295C0.000199861 56.018 0.17527 53.6414 0.512279 51.3217L0.481642 51.5843H102.434L103.081 51.5931C106.819 51.5979 110.502 50.6888 113.809 48.9451L113.682 49.0064C111.418 45.3392 110.433 41.0249 110.881 36.7384L110.872 36.8216C111.066 32.4641 112.379 28.23 114.684 24.5273L114.623 24.6367L116.969 21.3541L120.251 23.7001C122.75 25.3658 124.886 27.5188 126.532 30.0299C128.178 32.5411 129.301 35.3587 129.832 38.314L129.854 38.4497C133.053 37.9716 136.3 37.8981 139.518 38.2309L139.356 38.2177C142.187 38.3228 144.805 39.1806 147.028 40.5899L146.967 40.5505L146.954 40.5418ZM27.1929 33.981V47.8072H11.7255V33.981H27.1929ZM45.4746 33.981V47.8072H30.0159V33.981H45.4746ZM63.7562 33.981V47.8072H48.2845V33.981H63.7562ZM45.4702 17.1087V31.1712H30.0159V17.1087H45.4702Z" fill="#000000"/>
</svg>
