<svg width="150" height="150" viewBox="0 0 150 150" fill="none" xmlns="http://www.w3.org/2000/svg">
<path d="M147.143 68.305L81.651 2.8365C80.7542 1.93737 79.6888 1.22401 78.5158 0.737276C77.3428 0.250542 76.0854 0 74.8154 0C73.5455 0 72.288 0.250542 71.1151 0.737276C69.9421 1.22401 68.8767 1.93737 67.9799 2.8365L54.4072 16.4326L71.6636 33.6656C73.6907 32.978 75.87 32.8721 77.9542 33.36C80.0384 33.8479 81.9442 34.9101 83.4554 36.4261C86.6798 39.6505 87.5797 44.2857 86.2159 48.2881L102.816 64.9119C104.85 64.2036 107.042 64.0844 109.141 64.5678C111.24 65.0512 113.159 66.1176 114.678 67.6442C119.196 72.1341 119.196 79.4078 114.678 83.9024C113.613 84.9697 112.348 85.8165 110.955 86.3943C109.562 86.972 108.069 87.2694 106.561 87.2694C105.053 87.2694 103.56 86.972 102.167 86.3943C100.774 85.8165 99.5087 84.9697 98.4435 83.9024C96.8438 82.3018 95.75 80.2661 95.2984 78.0486C94.8467 75.8312 95.0571 73.5299 95.9033 71.4311L80.3528 55.9556V96.744C81.4495 97.2829 82.4993 98.0141 83.4038 98.9186C87.8703 103.437 87.8703 110.682 83.4038 115.177C81.2386 117.333 78.3072 118.544 75.2513 118.544C72.1954 118.544 69.264 117.333 67.0988 115.177C65.759 113.836 64.7712 112.186 64.2235 110.372C63.6758 108.557 63.5851 106.636 63.9594 104.778C64.3338 102.92 65.1616 101.184 66.3691 99.7233C67.5767 98.2627 69.1266 97.1233 70.881 96.4065V55.2291C69.4816 54.6348 68.2066 53.7827 67.1222 52.7171C65.5095 51.1085 64.4134 49.0554 63.9742 46.8203C63.535 44.5852 63.7728 42.2699 64.657 40.1708L47.7146 23.1346L2.80192 68.0238C1.00646 69.846 0 72.3013 0 74.8594C0 77.4175 1.00646 79.8728 2.80192 81.695L68.2939 147.164C69.1907 148.063 70.2561 148.776 71.4291 149.263C72.6021 149.749 73.8595 150 75.1295 150C76.3994 150 77.6569 149.749 78.8298 149.263C80.0028 148.776 81.0682 148.063 81.965 147.164L147.138 81.9902C148.037 81.0934 148.751 80.028 149.238 78.855C149.724 77.6821 149.975 76.4246 149.975 75.1547C149.975 73.8847 149.724 72.6273 149.238 71.4543C148.751 70.2813 148.037 69.2159 147.138 68.3191L147.143 68.305Z" fill="black"/>
</svg>
