<svg width="150" height="150" viewBox="0 0 150 150" fill="none" xmlns="http://www.w3.org/2000/svg">
<path d="M75 135C90.913 135 106.174 128.679 117.426 117.426C128.679 106.174 135 90.913 135 75C135 59.087 128.679 43.8258 117.426 32.5736C106.174 21.3214 90.913 15 75 15C59.087 15 43.8258 21.3214 32.5736 32.5736C21.3214 43.8258 15 59.087 15 75C15 90.913 21.3214 106.174 32.5736 117.426C43.8258 128.679 59.087 135 75 135V135ZM75 150C33.5775 150 0 116.422 0 75C0 33.5775 33.5775 0 75 0C116.422 0 150 33.5775 150 75C150 116.422 116.422 150 75 150Z" fill="#000000"/>
<path d="M75 109.62L61.1925 67.125H88.8075L75 109.62ZM75 109.62L41.835 67.125H61.185L75 109.62ZM41.835 67.125L75 109.62L38.6775 83.235C38.1883 82.8794 37.8245 82.3777 37.6385 81.8023C37.4525 81.2268 37.4539 80.6071 37.6425 80.0325L41.8425 67.1175L41.835 67.125ZM41.835 67.125L50.16 41.5275C50.2519 41.2396 50.4329 40.9884 50.6769 40.8101C50.9209 40.6319 51.2153 40.5358 51.5175 40.5358C51.8197 40.5358 52.114 40.6319 52.358 40.8101C52.602 40.9884 52.7831 41.2396 52.875 41.5275L61.1925 67.125H41.8425H41.835ZM75 109.62L88.8075 67.1175H108.157L75 109.62ZM108.165 67.1175L112.365 80.0325C112.552 80.6086 112.551 81.2294 112.362 81.805C112.174 82.3806 111.807 82.8814 111.315 83.235L75 109.62L108.165 67.1175ZM108.165 67.1175H88.815L97.125 41.52C97.215 41.2293 97.3957 40.975 97.6406 40.7944C97.8856 40.6138 98.1819 40.5164 98.4862 40.5164C98.7905 40.5164 99.0869 40.6138 99.3318 40.7944C99.5768 40.975 99.7575 41.2293 99.8475 41.52L108.165 67.1175Z" fill="#000000"/>
</svg>
