<svg width="150" height="150" viewBox="0 0 150 150" fill="none" xmlns="http://www.w3.org/2000/svg">
<path d="M0 0V150H150V0H0ZM81.6321 116.984C81.6321 131.582 73.0607 138.246 60.5732 138.246C49.2911 138.246 42.7607 132.423 39.4125 125.357L50.8982 118.425C53.1107 122.341 55.1196 125.657 59.9732 125.657C64.5911 125.657 67.5375 123.846 67.5375 116.786V68.8714H81.6321V116.984ZM114.975 138.246C101.882 138.246 93.4125 132.021 89.2929 123.846L100.779 117.22C103.795 122.143 107.743 125.791 114.675 125.791C120.498 125.791 124.254 122.877 124.254 118.827C124.254 114.005 120.434 112.296 113.973 109.452L110.459 107.946C100.28 103.629 93.5518 98.1696 93.5518 86.6839C93.5518 76.1036 101.62 68.0679 114.177 68.0679C123.15 68.0679 129.579 71.1804 134.202 79.35L123.22 86.3839C120.809 82.0661 118.195 80.3571 114.145 80.3571C110.03 80.3571 107.416 82.9714 107.416 86.3839C107.416 90.6054 110.03 92.3089 116.089 94.9554L119.604 96.4607C131.593 101.582 138.321 106.843 138.321 118.623C138.321 131.282 128.341 138.241 114.98 138.241L114.975 138.246Z" fill="black"/>
</svg>
