<svg width="132" height="150" viewBox="0 0 132 150" fill="none" xmlns="http://www.w3.org/2000/svg">
<path d="M71.0973 54.994L52.4384 0H131.711L112.987 55.154C112.181 55.3465 111.389 55.5916 110.616 55.8879L92.1199 18.203L73.5701 55.6649C72.762 55.3857 71.9358 55.1615 71.0973 54.994ZM10.1347 145.017C35.0683 162.509 62.7247 128.663 100.396 124.399C122.03 123.119 136.734 109.892 128.356 89.4158C112.778 98.9985 98.2198 86.4413 98.3216 73.8407H86.4847C86.096 85.0904 77.6237 93.941 64.4908 92.6253C54.2113 107.984 42.2972 116.614 28.7787 121C19.6416 116.788 11.0431 106.53 14.9415 92.8286C13.2452 92.6395 11.5821 92.2226 9.99741 91.5891C-2.56957 115.026 -4.12248 133.549 10.1347 145.017ZM28.6971 73.8425C28.6971 64.9406 18.9822 59.347 11.2526 63.7978C3.52296 68.2485 3.52237 79.4364 11.2526 83.8869C18.9822 88.338 28.6971 82.7443 28.6971 73.8425ZM78.9768 73.732C78.9768 64.8305 69.2616 59.2365 61.532 63.6876C53.8024 68.1387 53.8021 79.326 61.532 83.7765C69.2619 88.2275 78.9765 82.6339 78.9765 73.732H78.9768ZM129.068 73.732C129.068 64.8305 119.352 59.2365 111.623 63.6876C103.893 68.1387 103.893 79.326 111.623 83.7765C119.353 88.2275 129.067 82.6339 129.067 73.732H129.068Z" fill="black"/>
</svg>
