<svg width="150" height="146" viewBox="0 0 150 146" fill="none" xmlns="http://www.w3.org/2000/svg">
<path d="M60.0325 85.5933L43.0525 88.5086C45.5149 95.395 50.1499 101.294 56.2584 105.315L62.7747 89.5332C62.9265 89.2765 63.0201 88.9896 63.0487 88.6928C63.0773 88.396 63.0404 88.0965 62.9404 87.8156C62.7747 86.4596 61.4036 85.5933 60.0325 85.5933V85.5933ZM66.5488 63.6413C68.0932 63.6413 69.4642 62.4435 69.4642 60.8991L70.323 43.7458L66.8878 44.4314C60.8731 45.8462 55.3572 48.8724 50.9323 53.1851L65.1702 63.3023C65.69 63.468 66.0366 63.6413 66.5488 63.6413V63.6413ZM59.0005 74.7905C59.2431 74.5117 59.4271 74.1869 59.5417 73.8355C59.6562 73.4841 59.699 73.1132 59.6673 72.745C59.6357 72.3767 59.5304 72.0186 59.3576 71.6919C59.1848 71.3651 58.9481 71.0765 58.6615 70.8431L45.9679 59.5206C42.2221 65.8291 40.4853 73.1285 40.9884 80.448L57.6294 75.6493C58.315 75.4761 58.6615 75.3028 59.0005 74.7905ZM69.9765 80.7945L74.617 83.0244L79.2424 80.7945L80.4477 75.815L77.1858 71.7019H72.0406L68.7787 75.815L69.9765 80.7945ZM80.1012 62.4435C80.96 63.6413 82.6701 63.8145 83.8679 63.129L97.9325 53.1851C92.7186 47.9744 85.8787 44.7046 78.5494 43.9191L79.5814 61.2457C79.5802 61.4705 79.6258 61.6931 79.7153 61.8993C79.8048 62.1055 79.9362 62.2908 80.1012 62.4435V62.4435Z" fill="#000000"/>
<path d="M149.913 88.3428L136.88 32.25C136.029 29.5079 133.965 27.278 131.388 25.907L79.0772 0.858795C77.7062 0.173266 76.1618 0 74.7908 0C73.4197 0 71.8754 5.61274e-07 70.5043 0.338998L18.1781 25.5604C16.8896 26.1496 15.7547 27.0287 14.8622 28.129C13.9696 29.2293 13.3436 30.5211 13.0329 31.9035L0.166046 88.3428C-0.346218 91.2582 0.339311 94.1736 2.04937 96.5767L38.2468 141.347C40.3034 143.404 43.2188 144.782 46.1342 144.955H103.771C106.86 145.294 109.775 143.923 111.666 141.347L147.864 96.5767C149.574 94.1736 150.259 91.2582 149.913 88.3428V88.3428ZM128.481 92.117C128.134 92.117 127.968 92.117 127.622 91.9438C127.456 91.7705 127.456 91.7705 127.283 91.7705C126.936 91.7705 126.77 91.6048 126.59 91.6048C125.904 91.4315 125.392 91.0925 124.706 90.746C124.341 90.7129 123.988 90.597 123.674 90.407H123.509C121.732 89.7157 119.893 89.1985 118.017 88.8626H117.851C117.345 88.8498 116.854 89.0334 116.48 89.3749C116.48 89.3749 116.48 89.5482 116.307 89.5482L114.928 89.3674C111.777 99.1302 105.193 107.419 96.3962 112.698L96.9085 114.069C96.9085 114.069 96.7428 114.069 96.7428 114.235C96.5879 114.49 96.4926 114.777 96.4639 115.075C96.4352 115.372 96.4739 115.672 96.577 115.952C97.2626 117.67 98.1214 119.38 99.3191 120.924V121.263C99.5989 121.505 99.8313 121.796 100.005 122.122C100.5 122.621 100.905 123.202 101.202 123.84C101.376 124.005 101.549 124.179 101.549 124.352C101.549 124.352 101.715 124.352 101.715 124.518C102.03 125.34 102.09 126.237 101.888 127.094C101.785 127.502 101.593 127.883 101.326 128.208C101.059 128.534 100.724 128.796 100.344 128.977C99.8314 129.143 99.4849 129.316 98.9651 129.316C98.2885 129.291 97.6308 129.087 97.0581 128.726C96.4854 128.365 96.018 127.859 95.7032 127.26C95.5374 127.26 95.5374 127.094 95.5374 127.094C95.3717 126.921 95.3717 126.755 95.1909 126.582C94.8519 126.07 94.6786 125.384 94.5054 124.698L94.1589 123.666V123.501C93.5957 121.658 92.8487 119.876 91.929 118.182C91.5986 117.696 91.1164 117.333 90.5579 117.15C90.5579 116.977 90.5579 116.977 90.3847 116.977L89.6991 115.779C87.9816 116.291 86.0907 116.977 84.2074 117.323C81.1187 118.182 78.0301 118.521 74.949 118.521C69.846 118.557 64.7824 117.627 60.0255 115.779L59.34 117.15C59.34 117.323 59.34 117.323 59.1667 117.323C58.6074 117.505 58.1248 117.868 57.7957 118.355C56.9369 120.073 56.0781 121.783 55.5658 123.674L55.2268 124.706C55.0536 125.392 54.7146 125.904 54.5413 126.589C54.3756 126.763 54.2023 126.928 54.2023 127.102C54.029 127.102 54.029 127.267 54.029 127.267C53.716 127.868 53.2491 128.375 52.676 128.736C52.103 129.098 51.4442 129.301 50.7671 129.324C50.3498 129.289 49.9432 129.174 49.5693 128.985C48.7952 128.531 48.2227 127.8 47.9681 126.939C47.7135 126.079 47.7958 125.154 48.1983 124.352C48.3715 124.352 48.3715 124.179 48.3715 124.179C48.5373 124.005 48.5373 123.84 48.7105 123.666C49.2228 122.981 49.5693 122.295 49.9083 121.949C50.2473 121.602 50.4206 121.437 50.5939 121.09V120.917C51.6734 119.356 52.5922 117.69 53.336 115.945C53.4359 115.664 53.4721 115.364 53.4422 115.067C53.4122 114.77 53.3168 114.483 53.1627 114.227C53.1627 114.227 52.997 114.227 52.997 114.061L53.8558 112.856C52.209 111.989 50.6564 110.954 49.2228 109.768C42.6158 104.651 37.7125 97.655 35.1582 89.6988L33.6138 89.8646C33.6138 89.8646 33.6138 89.6988 33.4406 89.6988C33.0686 89.3545 32.5761 89.1705 32.0695 89.1866H31.9038C29.9724 89.5169 28.0776 90.0341 26.2463 90.7309H26.0655C25.7265 90.7309 25.38 90.9042 25.0334 91.0774C24.5212 91.2432 23.8356 91.5897 23.1501 91.763C22.9844 91.763 22.4646 91.5972 22.4646 91.763C22.4646 91.9362 22.4646 91.9362 22.2913 91.9362C21.9523 92.1095 21.779 92.1095 21.4325 92.1095C20.6664 92.1905 19.8968 91.992 19.2655 91.5504C18.6342 91.1087 18.1838 90.4539 17.9973 89.7064C17.9117 89.2665 17.9152 88.814 18.0075 88.3755C18.0998 87.937 18.2791 87.5215 18.5347 87.1535C18.7903 86.7855 19.1172 86.4725 19.4959 86.233C19.8745 85.9934 20.2974 85.8322 20.7394 85.7589C20.9127 85.5857 20.9127 85.5857 21.086 85.5857C21.425 85.5857 21.5982 85.4199 21.7715 85.4199C22.457 85.4199 23.1426 85.2467 23.8281 85.2467C24.1671 85.0809 24.5136 85.0809 24.8602 85.0809C26.8317 84.9199 28.7839 84.5744 30.6909 84.0489C31.2032 83.7023 31.723 83.3633 31.8962 82.8435C31.8962 82.8435 32.062 82.8435 32.062 82.6778L33.433 82.3313C31.8887 72.5531 34.1186 62.6091 39.4371 54.202C39.6028 53.863 39.7761 53.6897 39.9493 53.3432L38.9625 52.3488C38.9568 52.3973 38.9467 52.4452 38.9323 52.4919V52.3187L38.9625 52.3488C39.0378 51.8591 38.7289 51.2565 38.4201 50.9476C37.049 49.5766 35.3314 48.5445 33.6138 47.52L32.5893 47.0002C31.9406 46.6937 31.3094 46.3517 30.6985 45.9756C30.5327 45.9756 30.1862 45.6366 30.1862 45.6366C30.1862 45.6366 30.1862 45.4634 30.0205 45.4634C29.3413 44.8812 28.8966 44.0722 28.7691 43.1868C28.6416 42.3013 28.84 41.3997 29.3274 40.6496C29.8397 39.7908 30.6985 39.4518 31.7305 39.4518C32.6029 39.4729 33.4454 39.774 34.1336 40.3106L34.3069 40.4839C34.4726 40.6496 34.6459 40.6496 34.8192 40.8229C35.3314 41.3427 35.678 41.8549 36.1902 42.3672C36.3635 42.5329 36.7025 42.7062 36.8757 43.0527C38.0735 44.4238 39.6179 45.7948 41.1622 47.0002C41.5012 47.1659 41.8477 47.3392 42.1942 47.3392C42.5332 47.3392 42.7065 47.1659 42.8798 47.1659H43.053L44.0851 47.8514C49.7402 41.8041 57.0984 37.6167 65.1858 35.8434C67.2424 35.4968 69.1257 35.1578 71.0166 34.9846L71.1899 33.6135V33.2745C71.7021 32.9355 71.8754 32.4157 72.0487 31.9035C72.0487 29.8469 72.0487 27.956 71.7097 26.0727V25.8994C71.7097 25.5604 71.7097 25.2139 71.5364 24.8674C71.3395 24.1983 71.2256 23.5076 71.1974 22.8108V21.9595C71.1974 21.1007 71.5364 20.2419 72.2295 19.5564C73.0882 18.6976 74.1128 18.1854 75.1448 18.3586C75.997 18.4768 76.7723 18.9147 77.3137 19.5833C77.855 20.252 78.1219 21.1014 78.0602 21.9595V22.9916C77.887 23.6771 77.887 24.3626 77.7212 25.0482C77.7212 25.3872 77.548 25.7337 77.548 26.0727V26.246C77.1864 28.3026 77.1864 30.1934 77.1864 32.0767C77.3596 32.589 77.5254 33.1013 78.0452 33.4478V33.2745L78.2184 34.6456C86.3346 35.4931 94.0552 38.5814 100.517 43.565C101.896 44.9361 103.432 46.3071 104.803 47.6782L106.182 46.8194H106.348C106.513 46.9926 106.86 46.9926 107.033 46.9926C107.38 46.9926 107.719 46.8194 108.065 46.6536C109.61 45.6216 111.154 44.2505 112.352 42.8795C112.517 42.7062 112.864 42.5329 113.037 42.1939C113.384 41.6817 113.896 41.1619 114.416 40.6496C114.582 40.6496 114.755 40.4839 114.928 40.3106L115.094 40.1373C115.782 39.605 116.62 39.3044 117.489 39.2786C118.348 39.2786 119.38 39.7908 119.893 40.4839C121.09 42.0282 120.744 44.0848 119.207 45.2826C119.207 45.4558 119.373 45.4558 119.207 45.6291C119.034 45.7948 118.86 45.7948 118.695 45.9681C118.002 46.3071 117.489 46.6536 116.804 47.0002L115.772 47.5124C114.064 48.4991 112.455 49.6468 110.966 50.9401C110.627 51.2866 110.453 51.9721 110.453 52.4844V52.6577L109.429 53.6897C112.171 57.9762 114.235 62.7824 115.433 67.7544C116.465 72.7263 116.804 77.8716 116.118 82.8435L117.489 83.1901C117.595 83.4629 117.758 83.7104 117.965 83.9167C118.173 84.123 118.421 84.2835 118.695 84.3879C120.578 84.9001 122.635 85.2467 124.518 85.4199H124.691C125.017 85.5559 125.371 85.6127 125.723 85.5857C126.409 85.5857 127.094 85.5857 127.772 85.7589C128.119 85.7589 128.465 85.7589 128.465 85.9322C128.465 86.0979 128.631 86.0979 128.804 86.0979C129.634 86.2969 130.379 86.753 130.934 87.4011C131.489 88.0492 131.824 88.8561 131.893 89.7064C131.634 90.4059 131.17 91.0107 130.561 91.441C129.952 91.8713 129.226 92.107 128.481 92.117V92.117Z" fill="#000000"/>
<path d="M75.6395 92.9758C75.0822 92.6551 74.4273 92.5478 73.7967 92.6739C73.1662 92.8 72.6029 93.1509 72.2118 93.6614L63.8047 108.931C67.2399 109.956 71.014 110.649 74.615 110.649C77.1838 110.649 79.5869 110.31 81.99 109.79C83.1878 109.451 84.2199 109.278 85.252 109.105L77.0181 94.1812C76.4983 93.6614 76.1517 93.3148 75.6395 92.9758V92.9758ZM103.091 59.5205L90.2239 71.182C89.8948 71.5176 89.6586 71.933 89.5384 72.3874C89.1919 73.9317 90.0507 75.476 91.595 75.815L107.889 80.448C108.256 76.831 108.022 73.1782 107.196 69.6377C106.367 66.0707 104.982 62.6565 103.091 59.5205V59.5205ZM87.4743 85.7665C86.8728 86.0399 86.3877 86.5176 86.105 87.1147C85.8223 87.7119 85.7603 88.3899 85.9299 89.0284L92.627 105.157C96.7826 102.538 100.299 99.0222 102.918 94.8667C104.289 92.9834 105.313 90.746 106.179 88.3504L89.0261 85.435C88.494 85.4582 87.9695 85.5702 87.4743 85.7665V85.7665Z" fill="#000000"/>
</svg>
