<svg width="150" height="151" viewBox="0 0 150 151" fill="none" xmlns="http://www.w3.org/2000/svg">
<path fill-rule="evenodd" clip-rule="evenodd" d="M2.15867e-06 74.9972C0.000483117 62.0555 3.34979 49.3342 9.72226 38.0701C16.0947 26.8061 25.2735 17.3826 36.366 10.7161C47.4586 4.04961 60.0875 0.366879 73.0247 0.0260227C85.9619 -0.314833 98.7671 2.69778 110.195 8.77094C121.624 14.8441 131.286 23.7711 138.243 34.684C145.199 45.5969 149.214 58.1242 149.896 71.0479C150.578 83.9716 147.904 96.8519 142.134 108.436C136.365 120.021 127.696 129.915 116.97 137.157L49.07 42.0972C48.4548 41.2351 47.5816 40.5905 46.5765 40.2566C45.5714 39.9226 44.4861 39.9165 43.4773 40.2391C42.4684 40.5616 41.588 41.1962 40.9631 42.0514C40.3382 42.9065 40.0009 43.938 40 44.9972V119.997H50V60.5972L108.3 142.217C96.864 147.884 84.1711 150.539 71.4227 149.93C58.6742 149.321 46.292 145.469 35.4481 138.738C24.6041 132.008 15.6572 122.621 9.45406 111.467C3.25096 100.313 -0.00305962 87.7602 2.15867e-06 74.9972ZM100 99.9972V39.9972H110V99.9972H100Z" fill="black"/>
</svg>
