<svg width="150" height="150" viewBox="0 0 150 150" fill="none" xmlns="http://www.w3.org/2000/svg">
<path d="M74.4594 0C36.3735 0 38.7484 16.5993 38.7484 16.5993L38.7921 33.7986H75.1281V38.9609H24.374C24.374 38.9609 0 36.1797 0 74.8031C0 113.427 21.2679 112.052 21.2679 112.052H33.9548V94.1336C33.9548 94.1336 33.2736 72.7595 54.8915 72.7595H90.9275C90.9275 72.7595 111.177 73.0845 111.177 53.0853V20.0117C111.177 20.0117 114.245 0 74.4532 0H74.4594ZM54.4227 11.562C58.0351 11.562 60.96 14.4994 60.96 18.1367C60.96 21.7678 58.0351 24.7052 54.4227 24.7052C50.8041 24.7052 47.8855 21.7678 47.8855 18.1367C47.8855 14.4994 50.8041 11.562 54.4227 11.562Z" fill="#000000"/>
<path d="M75.5399 149.994C113.613 149.994 111.238 133.394 111.238 133.394L111.195 116.195H74.8587V111.033H125.625C125.625 111.033 149.999 113.814 149.999 75.1906C149.999 36.5672 128.725 37.9422 128.725 37.9422H116.038V55.8602C116.038 55.8602 116.719 77.2343 95.1016 77.2343H59.0718C59.0718 77.2343 38.8227 76.9093 38.8227 96.9085V129.982C38.8227 129.982 35.7478 149.994 75.5399 149.994ZM95.5766 138.432C91.958 138.432 89.0393 135.494 89.0393 131.857C89.0393 128.226 91.958 125.289 95.5766 125.289C99.1889 125.289 102.114 128.226 102.114 131.857C102.114 135.494 99.1889 138.432 95.5766 138.432Z" fill="#000000"/>
</svg>
