<svg width="22" height="20" viewBox="0 0 22 20" fill="none" xmlns="http://www.w3.org/2000/svg">
<path d="M5.357 7.00024C2.72 7.68024 1 8.84524 1 10.1752C1 12.2822 5.405 14.0002 10.85 14.0002C11.59 14.0002 12.11 13.9612 12.8 13.9032" stroke="black" stroke-width="2" stroke-linecap="round" stroke-linejoin="round"/>
<path d="M8.83711 13.9002C8.42411 13.3042 8.03111 12.7672 7.65711 12.1002C4.90611 7.20022 4.16911 2.33022 6.02711 1.22722C7.17711 0.530222 9.07411 1.48022 11.0011 3.48122" stroke="black" stroke-width="2" stroke-linecap="round" stroke-linejoin="round"/>
<path d="M5.42922 13.3872C4.72722 16.0752 4.86922 18.1032 5.98922 18.7822C7.77222 19.8622 11.3762 16.8242 14.0322 11.9782C14.3922 11.3082 14.7152 10.6492 15.0002 10.0002" stroke="black" stroke-width="2" stroke-linecap="round" stroke-linejoin="round"/>
<path d="M11 16.5202C12.928 18.5202 14.817 19.4702 15.978 18.7732C17.828 17.6712 17.099 12.8012 14.345 7.90022C13.961 7.22322 13.568 6.69622 13.165 6.10022" stroke="black" stroke-width="2" stroke-linecap="round" stroke-linejoin="round"/>
<path d="M16.6602 13.0002C19.2722 12.3132 21.0002 11.1502 21.0002 9.82424C21.0002 7.71424 16.5922 6.00024 11.1552 6.00024C10.4082 6.00024 9.8892 6.02924 9.2002 6.08724" stroke="black" stroke-width="2" stroke-linecap="round" stroke-linejoin="round"/>
<path d="M7 10.0002C7.285 9.34025 7.607 8.69225 7.968 8.02225C10.615 3.17825 14.221 0.132247 16.014 1.22125C17.124 1.90025 17.276 3.92725 16.574 6.61425M11.26 10.0152H11.25C11.24 10.1452 11.13 10.2552 10.99 10.2552C10.923 10.2519 10.8599 10.2232 10.8134 10.1749C10.7669 10.1265 10.7407 10.0623 10.74 9.99525C10.74 9.85525 10.85 9.74525 10.98 9.74525H10.97C11.1 9.73525 11.22 9.85525 11.22 9.98525" stroke="black" stroke-width="2" stroke-linecap="round" stroke-linejoin="round"/>
</svg>
