<svg width="150" height="136" viewBox="0 0 150 136" fill="none" xmlns="http://www.w3.org/2000/svg">
<path d="M50.3786 0.0640146C45.8518 -0.241343 41.4 0.572944 37.5 2.82294C32.2982 5.82294 28.8321 10.9497 26.9732 16.8587C25.1143 22.7515 24.6857 29.5551 25.3661 36.9854C25.4304 37.7354 25.5643 38.5229 25.6554 39.289C24.9482 39.589 24.1982 39.8676 23.5125 40.189C16.7411 43.3122 11.0679 47.0837 6.88393 51.6426C2.70536 56.2069 0 61.7676 0 67.7783C0 73.7837 2.70536 79.3497 6.88393 83.914C11.0625 88.4729 16.7411 92.2444 23.5125 95.3676C24.1982 95.689 24.9482 95.9676 25.6554 96.2676C25.5643 97.0337 25.4304 97.8212 25.3607 98.5712C24.6857 106.002 25.1143 112.8 26.9732 118.703C28.8321 124.607 32.2982 129.728 37.5 132.734C42.7018 135.734 48.8679 136.178 54.9107 134.839C60.9536 133.5 67.0554 130.462 73.1464 126.16C73.7625 125.732 74.3786 125.223 75 124.762C75.6161 125.223 76.2321 125.727 76.8536 126.16C82.9446 130.462 89.0464 133.5 95.0893 134.839C101.132 136.178 107.298 135.739 112.5 132.734C117.702 129.734 121.168 124.607 123.027 118.698C124.886 112.805 125.314 106.002 124.634 98.5712C124.57 97.8212 124.436 97.0337 124.345 96.2676C125.052 95.9676 125.802 95.689 126.488 95.3676C133.259 92.2444 138.932 88.4729 143.116 83.914C147.295 79.3497 150 73.789 150 67.7783C150 61.7729 147.295 56.2069 143.116 51.6426C138.938 47.0837 133.259 43.3122 126.488 40.189C125.802 39.8676 125.052 39.589 124.345 39.289C124.436 38.5229 124.57 37.7354 124.639 36.9854C125.314 29.5551 124.886 22.7569 123.027 16.8533C121.168 10.9497 117.702 5.8283 112.5 2.82294C107.298 -0.177056 101.132 -0.621699 95.0893 0.717587C89.0464 2.05687 82.9446 5.09437 76.8536 9.39616C76.2375 9.82473 75.6214 10.3337 75 10.7944C74.3839 10.3337 73.7679 9.83009 73.1464 9.39616C67.0554 5.09437 60.9536 2.05687 54.9107 0.717587C53.4189 0.383276 51.9038 0.162996 50.3786 0.0586578V0.0640146ZM49.6821 10.7354C50.5929 10.7997 51.5625 10.9497 52.5964 11.1854C56.6464 12.0801 61.4946 14.3515 66.6107 17.9087C62.1189 22.1842 57.9554 26.7919 54.1554 31.6926C48.0203 32.5293 41.9568 33.8258 36.0161 35.5712C35.4911 29.3676 35.9411 24.0319 37.1839 20.0783C38.4643 16.0283 40.3714 13.5426 42.8571 12.1015C44.7214 11.0301 46.9393 10.5265 49.6768 10.7354H49.6821ZM100.323 10.7354C103.055 10.5265 105.279 11.0301 107.143 12.1015C109.629 13.5372 111.536 16.0283 112.816 20.0783C114.059 24.0319 114.509 29.3676 113.984 35.5712C108.043 33.8258 101.98 32.5293 95.8447 31.6926C92.0447 26.7919 87.8811 22.1842 83.3893 17.9087C88.5054 14.3515 93.3536 12.0801 97.4036 11.1854C98.4375 10.9551 99.4071 10.7997 100.323 10.7354ZM75 24.7015C76.8804 26.4426 78.7607 28.3765 80.6411 30.4015C78.7616 30.327 76.8809 30.2859 75 30.2783C73.0982 30.2783 71.2286 30.3372 69.3589 30.4015C71.2339 28.3765 73.1196 26.4426 75 24.7015ZM75 40.9926C80.1696 40.9926 85.1786 41.2979 89.9946 41.8069C92.9489 45.8519 95.6867 50.0506 98.1964 54.3854C100.779 58.8587 103.018 63.3479 104.989 67.7783C102.963 72.3595 100.696 76.83 98.1964 81.1712C95.6867 85.506 92.9489 89.7047 89.9946 93.7497C85.1732 94.2587 80.1696 94.564 75 94.564C69.8304 94.564 64.8214 94.2587 60.0054 93.7497C57.0511 89.7047 54.3133 85.506 51.8036 81.1712C49.2214 76.6979 46.9821 72.2087 45.0107 67.7783C46.9768 63.3479 49.2214 58.8587 51.8036 54.3854C54.3857 49.9122 57.1554 45.7229 60.0054 41.8069C64.9857 41.2707 69.9909 40.9989 75 40.9926ZM45.45 44.2069C44.4589 45.7872 43.4732 47.3783 42.525 49.0283C41.5922 50.6621 40.6885 52.3124 39.8143 53.9783C39.0107 51.4276 38.3049 48.8472 37.6982 46.2426C40.1464 45.4872 42.7607 44.8176 45.45 44.2069ZM104.55 44.2069C107.239 44.8176 109.854 45.4872 112.302 46.2426C111.734 48.7444 111 51.3426 110.186 53.9783C109.312 52.3124 108.408 50.6621 107.475 49.0283C106.529 47.404 105.553 45.7966 104.55 44.2069ZM27.6107 50.1158C28.9821 55.8212 30.8732 61.7408 33.3268 67.7783C30.9811 73.5141 29.0703 79.4183 27.6107 85.4408C21.9804 82.789 17.5821 79.7247 14.7857 76.6712C11.9196 73.5426 10.7143 70.6497 10.7143 67.7783C10.7143 64.9069 11.9196 62.014 14.7857 58.8854C17.5821 55.8319 21.9804 52.7676 27.6107 50.1158ZM122.389 50.1158C128.02 52.7676 132.418 55.8319 135.214 58.8854C138.08 62.014 139.286 64.9069 139.286 67.7783C139.286 70.6497 138.08 73.5426 135.214 76.6712C132.418 79.7247 128.02 82.789 122.389 85.4408C120.93 79.4183 119.019 73.5141 116.673 67.7783C119.127 61.7408 121.018 55.8212 122.389 50.1158ZM75 51.7069C66.1875 51.7069 58.9286 58.9658 58.9286 67.7783C58.9286 76.5908 66.1875 83.8497 75 83.8497C83.8125 83.8497 91.0714 76.5908 91.0714 67.7783C91.0714 58.9658 83.8125 51.7069 75 51.7069ZM75 62.4212C78.0214 62.4212 80.3571 64.7569 80.3571 67.7783C80.3571 70.7997 78.0214 73.1354 75 73.1354C71.9786 73.1354 69.6429 70.7997 69.6429 67.7783C69.6429 64.7569 71.9786 62.4212 75 62.4212ZM39.8143 81.5783C40.6875 83.2283 41.5714 84.8783 42.5196 86.5283C43.4732 88.1783 44.4589 89.7694 45.45 91.3497C42.7607 90.739 40.1464 90.0694 37.6982 89.314C38.2661 86.8122 39 84.214 39.8143 81.5783ZM110.186 81.5783C111 84.214 111.739 86.8122 112.302 89.314C109.854 90.0694 107.239 90.739 104.55 91.3497C105.541 89.7694 106.527 88.1783 107.48 86.5283C108.429 84.8783 109.313 83.2283 110.186 81.5783ZM36.0161 99.9854C41.6411 101.646 47.7107 102.975 54.1554 103.864C58.1571 109.007 62.3518 113.603 66.6107 117.648C61.4946 121.205 56.6464 123.477 52.5964 124.371C48.4554 125.293 45.3429 124.885 42.8571 123.455C40.3714 122.019 38.4643 119.528 37.1839 115.478C35.9411 111.525 35.4911 106.189 36.0161 99.9854ZM113.984 99.9854C114.509 106.189 114.059 111.525 112.816 115.478C111.536 119.528 109.629 122.014 107.143 123.455C104.657 124.885 101.545 125.293 97.4036 124.371C93.3536 123.477 88.5054 121.205 83.3893 117.648C87.8811 113.372 92.0447 108.765 95.8447 103.864C101.98 103.027 108.043 101.731 113.984 99.9854ZM69.3589 105.155C71.2286 105.219 73.0982 105.278 75 105.278C76.9018 105.278 78.7714 105.219 80.6411 105.155C78.7661 107.18 76.8804 109.114 75 110.855C73.0477 109.028 71.166 107.126 69.3589 105.155Z" fill="black"/>
</svg>
