<svg width="150" height="143" viewBox="0 0 150 143" fill="none" xmlns="http://www.w3.org/2000/svg">
<path d="M103.956 99.2784C109.399 98.8143 113.6 94.0278 113.332 88.3131C113.037 82.5984 108.349 78.0135 102.662 78.0135H102.269C99.4366 78.1149 96.7607 79.3369 94.8293 81.4107C92.8979 83.4845 91.8691 86.2404 91.9691 89.0726C92.1613 92.0776 93.3802 94.492 95.0679 96.2734C88.5 109.02 78.6832 118.377 63.7659 126.258C53.757 131.485 43.1808 133.464 32.8812 132.048C24.2599 130.852 17.5232 126.999 13.3977 120.815C7.21419 111.439 6.65163 101.355 11.8085 91.2244C15.5636 83.9251 21.1845 78.5714 24.9162 75.9602C23.7946 72.8191 22.9215 69.5947 22.305 66.3169C-5.42943 86.1707 -2.59786 113.347 5.82653 126.169C12.1038 135.545 24.9162 141.527 38.9569 141.527C42.7213 141.527 46.6499 141.26 50.4847 140.303C74.8578 135.615 93.2911 121.012 103.858 99.48L103.956 99.2784ZM137.382 75.8664C122.882 58.8207 101.514 49.4447 77.1737 49.4447H73.9718C72.4106 45.999 68.7446 43.8331 64.6191 43.8331H64.3519C58.445 43.8331 53.8507 48.9102 54.0429 54.7984C54.2445 60.41 58.9982 65.098 64.7129 65.098H65.1817C67.2093 65.0156 69.1706 64.3529 70.8326 63.1886C72.4947 62.0244 73.7876 60.4075 74.5578 58.5301H78.0222C92.4567 58.5301 106.108 62.754 118.583 70.9862C128.104 77.2541 134.968 85.5144 138.798 95.3499C142.169 103.38 141.972 111.27 138.503 117.838C133.182 128.115 124.171 133.557 112.306 133.557C104.81 133.557 97.5104 131.213 93.7459 129.53C91.5003 131.387 87.7405 134.486 85.0261 136.37C93.2818 140.102 101.608 142.254 109.666 142.254C127.931 142.254 141.508 131.973 146.66 122.039C152.271 110.806 151.812 91.8807 137.476 75.6695L137.382 75.8664ZM40.5461 102.649C40.6742 105.407 41.8539 108.012 43.8427 109.927C45.8314 111.843 48.4783 112.924 51.2395 112.949H51.6098C53.0175 112.915 54.4042 112.601 55.6885 112.024C56.9728 111.447 58.1288 110.618 59.0884 109.588C60.048 108.558 60.7919 107.346 61.2764 106.024C61.7609 104.702 61.9761 103.296 61.9095 101.89C61.9095 96.2687 57.0527 91.5807 51.3379 91.5807H50.9441C50.5832 91.5807 50.0206 91.5807 49.5331 91.7823C41.7697 78.6699 38.4927 64.6058 39.7116 49.44C40.4476 38.0152 44.2074 28.1001 50.9441 19.8491C56.5651 12.8405 67.1319 9.34793 74.3609 9.17916C94.5803 8.78537 103.028 34.007 103.666 44.0206L113.042 46.8287C110.867 16.1128 91.7769 0 73.5123 0C56.3729 0 40.5461 12.4514 34.1751 30.716C25.4788 55.0891 31.1935 78.4777 41.8634 97.2298C40.9399 98.4252 40.3773 100.6 40.5461 102.649Z" fill="black"/>
</svg>
