<svg width="150" height="113" viewBox="0 0 150 113" fill="none" xmlns="http://www.w3.org/2000/svg">
<path d="M70.7384 85.05C70.6681 85.1906 70.5978 85.3031 70.7384 85.05V85.05ZM129.12 64.6614C124.405 64.6614 119.755 65.7394 115.528 67.8251C114.145 65.0364 112.716 62.5991 112.481 60.7711C112.2 58.6385 111.895 57.373 112.223 54.842C112.551 52.311 114.028 48.7255 114.004 48.4677C113.981 48.2099 113.676 46.9209 110.653 46.8975C107.63 46.8741 105.029 47.4834 104.724 48.2802C104.189 49.736 103.774 51.233 103.482 52.7563C102.943 55.4982 97.4405 65.2941 94.3236 70.403C93.2924 68.411 92.4253 66.6534 92.2378 65.2473C91.9566 63.1147 91.652 61.8492 91.9801 59.3182C92.3081 56.7872 93.7846 53.2016 93.7611 52.9438C93.7377 52.686 93.433 51.3971 90.4146 51.3736C87.3961 51.3502 84.7901 51.9595 84.4855 52.7563C84.1808 53.5531 83.8527 55.4279 83.2434 57.2324C82.6341 59.0369 75.2989 75.3478 73.3819 79.5896C72.3976 81.7457 71.5539 83.4799 70.9446 84.6516C70.8509 84.8391 70.7806 84.9563 70.7337 85.05C70.804 84.9328 70.8509 84.8157 70.8509 84.8625C70.3353 85.8703 70.0307 86.4327 70.0307 86.4327V86.4561C69.6323 87.206 69.187 87.8857 68.9761 87.8857C68.8355 87.8857 68.5308 85.9171 69.0464 83.2221C70.1478 77.5508 72.7491 68.7391 72.7257 68.4345C72.7023 68.2704 73.2178 66.7471 71.0149 65.9269C68.8823 65.1535 68.109 66.4425 67.9215 66.4425C67.734 66.4425 67.5934 66.9112 67.5934 66.9112C67.5934 66.9112 69.9604 56.9746 63.047 56.9746C58.7349 56.9746 52.7355 61.7086 49.7873 65.9972C47.936 67.0049 43.9285 69.1844 39.7102 71.5045L34.8591 74.1761C34.7419 74.0589 34.6482 73.9417 34.531 73.8245C26.1412 64.8723 10.6552 58.5448 11.3114 46.5225C11.5458 42.1402 13.0691 30.6335 41.0929 16.6661C64.0594 5.22974 82.4185 8.37006 85.5822 15.3537C90.1287 25.3137 75.7629 43.8509 51.9152 46.5225C42.8224 47.5303 38.0463 44.015 36.8511 42.7026C35.609 41.3199 35.4216 41.2496 34.9529 41.5074C34.1795 41.9293 34.6716 43.1479 34.9529 43.8744C35.6559 45.7258 38.5853 49.0067 43.577 50.6471C47.9594 52.0767 58.6177 52.8735 71.5024 47.8818C85.9806 42.3042 97.253 26.7667 93.9439 13.7602C90.5786 0.542702 68.662 -3.79281 47.9406 3.56584C35.5903 7.94822 22.2369 14.8382 12.6332 23.8139C1.22023 34.5003 -0.603024 43.8041 0.146902 47.6943C2.81851 61.4976 21.8432 70.4968 29.455 77.1524L28.4004 77.7382C24.5804 79.6365 10.0787 87.2295 6.44628 95.2443C2.34512 104.337 7.1259 110.852 10.2615 111.743C20.0574 114.461 30.083 109.563 35.4731 101.525C40.8632 93.4867 40.207 82.9877 37.7229 78.2069C37.6995 78.1366 37.6526 78.0898 37.6292 78.0195C40.4412 76.3538 43.2772 74.7288 46.1361 73.1449C45.1987 75.6759 44.5191 78.7225 44.1676 83.1283C43.7457 88.2841 45.8783 94.9631 48.6437 97.5878C49.8623 98.7362 51.3341 98.7596 52.2527 98.7596C55.4868 98.7596 56.9398 96.088 58.5568 92.9008C60.5488 89.0106 62.3064 84.4876 62.3064 84.4876C62.3064 84.4876 60.1035 96.7207 66.1264 96.7207C68.3293 96.7207 70.5322 93.8851 71.5164 92.4321V92.4555C71.5164 92.4555 71.5633 92.3618 71.6805 92.1743C71.9148 91.8228 72.032 91.6119 72.032 91.6119V91.5416C72.9226 90.0183 74.8677 86.5264 77.7971 80.7614C81.5936 73.309 85.2213 64.0052 85.2213 64.0052C85.5729 66.0488 86.0603 68.0689 86.6743 70.0515C87.3305 72.2778 88.7132 74.7151 89.8146 77.082C88.9241 78.3007 88.3851 79.0037 88.3851 79.0037C88.3851 79.0225 88.3945 79.0365 88.4085 79.0506C87.7055 79.988 86.9087 80.9957 86.0884 81.98C83.0934 85.5422 79.5266 89.6199 79.0579 90.7916C78.4954 92.1743 78.6361 93.2055 79.7141 94.0023C80.5109 94.6116 81.917 94.7053 83.3934 94.5881C86.0884 94.4007 87.9867 93.7445 88.9007 93.3226C90.5864 92.7186 92.1797 91.8826 93.6346 90.8385C96.564 88.6825 98.3451 85.589 98.181 81.5113C98.0873 79.2615 97.3608 77.0117 96.4702 74.9026C96.728 74.5276 97.0092 74.1292 97.267 73.7308C100.317 69.1804 103.065 64.4347 105.493 59.5244C105.844 61.568 106.327 63.5881 106.946 65.5707C107.508 67.4689 108.61 69.5547 109.617 71.5935C105.258 75.1322 102.563 79.2334 101.631 81.9284C99.8965 86.9201 101.256 89.1699 103.81 89.6855C104.958 89.9199 106.599 89.3808 107.818 88.8653C109.627 88.2606 111.333 87.3842 112.875 86.264C115.804 84.1079 118.64 81.0848 118.448 76.9836C118.377 75.1322 117.862 73.2809 117.182 71.4998C120.862 69.9531 125.642 69.1094 131.736 69.8124C144.784 71.3357 147.339 79.4912 146.847 82.8893C146.354 86.2874 143.612 88.1856 142.699 88.7481C141.785 89.3105 141.503 89.5215 141.574 89.9433C141.691 90.5526 142.113 90.5292 142.886 90.3885C143.964 90.2011 149.729 87.6232 149.987 81.3191C150.362 73.3512 142.699 64.5864 129.13 64.6567L129.12 64.6614ZM28.541 98.5721C24.2289 103.283 18.1873 105.064 15.586 103.564C12.7972 101.942 13.8987 95.01 19.2138 89.9902C22.4478 86.9436 26.6193 84.1314 29.3847 82.3971C30.0174 82.0222 30.9314 81.4597 32.0563 80.7801C32.1477 80.7215 32.2415 80.6668 32.3375 80.6161C32.5484 80.4755 32.7828 80.3583 33.0171 80.2177C34.9575 87.342 33.0874 93.6226 28.541 98.5674V98.5721ZM60.0285 77.1524C58.5287 80.8317 55.3696 90.2058 53.4432 89.7136C51.8028 89.2918 50.795 82.1441 53.1151 75.1135C54.2869 71.5748 56.771 67.3564 58.2474 65.716C60.6144 63.0678 63.2157 62.2241 63.825 63.2787C64.6452 64.6614 60.9659 74.8557 60.0285 77.1524ZM86.0416 89.573C85.4088 89.9011 84.8229 90.112 84.5417 89.948C84.3308 89.8308 84.7995 89.3855 84.7995 89.3855C84.7995 89.3855 88.057 85.8937 89.3459 84.3001C90.0959 83.3627 90.963 82.2612 91.9004 81.0426C91.9004 81.1598 91.9238 81.2769 91.9238 81.4176C91.8957 85.6125 87.8648 88.4481 86.0369 89.573H86.0416ZM106.102 85.0031C105.633 84.675 105.704 83.5736 107.274 80.1521C107.883 78.8163 109.289 76.5665 111.727 74.4104C112.003 75.226 112.153 76.079 112.172 76.9414C112.148 82.2144 108.375 84.1829 106.102 85.0031Z" fill="black"/>
</svg>
