<svg width="150" height="150" viewBox="0 0 150 150" fill="none" xmlns="http://www.w3.org/2000/svg">
<path d="M37.6148 72.0246C37.0289 79.4021 43.5103 84.8361 47.9335 84.8361C52.3629 84.6296 69.6138 70.0922 69.6138 70.0922C77.7272 59.831 77.7624 55.2683 77.7624 51.682C77.0856 35.8491 48.2399 59.9643 37.6148 72.0246ZM108.972 65.8963C112.887 57.6094 107.619 48.4052 96.1608 56.4896C87.0554 62.277 75.2672 74.1826 69.6255 78.8432C67.0087 84.1286 73.6421 98.6335 84.1538 90.975C96.5786 81.9481 105.652 73.4599 108.972 65.8963ZM119.636 15.7658L122.159 0H150V28.7795L139.797 28.9014L127.511 70.5129C128.276 85.1988 120.829 85.4379 119.877 92.1765C117.486 109.113 98.5462 122.971 91.3049 122.971C86.4753 122.831 82.9447 117.296 81.7588 112.472C95.376 97.4106 113.688 85.5744 113.688 85.5744C114.831 77.6534 112.318 75.1315 120.77 68.3818L128.834 25.9781C121.947 21.4298 118.733 21.5004 119.636 15.7658ZM65.2939 85.9904C72.3551 100.218 82.5577 100.589 98.376 82.4751C98.7519 84.1497 99.1635 85.9043 98.4082 90.1172C66.2297 118.898 35.9221 146.909 26.6968 150H0V142.84C4.3418 136.819 39.975 107.428 65.2939 85.9904ZM112.851 113.538C111.402 125.854 100.174 136.63 85.1707 150H37.6207L77.707 116.234C84.627 131.982 96.9182 129.701 112.851 113.538H112.851ZM56.6191 85.585L0 133.844V102.534L33.3193 75.4102C35.1018 85.5061 46.021 94.3963 56.6191 85.5855V85.585Z" fill="black"/>
</svg>
