<svg width="149" height="150" viewBox="0 0 149 150" fill="none" xmlns="http://www.w3.org/2000/svg">
<path d="M147.813 28.9171C147.175 27.2386 145.297 26.3954 143.619 27.0335L143.148 27.2126L142.871 27.3176C142.69 27.3886 142.416 27.4858 142.069 27.6313L140.79 28.1728C140.539 28.2833 140.266 28.3973 139.98 28.5289L139.078 28.9644C137.81 29.5914 136.259 30.3788 134.572 31.4896C132.872 32.5838 130.974 33.95 129.09 35.7914C127.213 37.6284 125.32 39.9446 123.806 42.8217C122.293 45.6851 121.203 49.1024 120.808 52.681C120.753 53.1386 120.721 53.6492 120.682 54.1379L120.638 54.7642L120.604 55.317L120.588 55.5941L120.586 55.6288C120.604 55.9165 120.591 55.7256 120.594 55.7979L120.592 55.8578L120.587 55.9781L120.568 56.4589C120.552 56.7788 120.553 57.1034 120.523 57.4197C120.452 58.6983 120.285 59.953 120.088 61.1736C119.703 63.6155 118.948 65.8701 118.002 67.7071C117.522 68.6235 116.975 69.4258 116.391 70.0955C115.81 70.7679 115.193 71.2941 114.593 71.7436C113.375 72.6168 112.152 73.1068 110.84 73.365C110.184 73.4661 109.505 73.5828 108.818 73.528C108.135 73.4875 107.426 73.4302 106.747 73.2299C105.376 72.8706 104.065 72.1758 102.979 71.2374C102.44 70.7724 101.946 70.2585 101.501 69.7025C101.063 69.1523 100.693 68.5664 100.357 67.9906C100.209 67.6902 100.033 67.4132 99.9024 67.118C99.8342 66.9736 99.7605 66.8319 99.6814 66.6932L99.477 66.2703C99.4053 66.132 99.3285 65.9985 99.2628 65.8624C99.2022 65.7243 99.1319 65.5908 99.0638 65.459C98.9304 65.2042 98.8004 64.9477 98.674 64.6894C98.4063 64.1988 98.1935 63.7244 97.9566 63.3229C97.8652 63.1473 97.7596 62.983 97.665 62.8281C97.5532 61.4866 97.4673 60.0732 97.407 58.5849C103.916 56.9878 108.745 51.1176 108.745 44.1165C108.745 39.4498 106.598 35.2856 103.24 32.5537C103.278 31.9234 103.3 31.2887 103.3 30.6487C103.3 13.7218 89.5784 0 72.6515 0C55.7247 0 42.0028 13.7218 42.0028 30.6487C42.0028 31.2887 42.0249 31.9234 42.0634 32.5537C38.7051 35.2856 36.5581 39.4498 36.5581 44.1165C36.5581 51.1263 41.3991 57.0046 47.92 58.5927C47.7392 64.6155 47.2395 69.6892 46.4191 74.0257C45.6553 74.7519 44.8012 75.3768 43.878 75.885C43.3233 76.1951 42.7277 76.4486 42.1068 76.6844C41.4834 76.9106 40.8282 77.082 40.1503 77.2279C40.4727 77.233 40.2262 77.2308 40.2923 77.2324L40.2689 77.235L40.2223 77.2402L40.1289 77.2502L39.9423 77.2703L39.569 77.3108L39.2317 77.3484L39.0324 77.3779L38.8305 77.4119C38.7555 77.4284 38.679 77.4376 38.6021 77.4394L38.0781 77.4735C37.3802 77.4939 36.6689 77.4877 35.9645 77.4057C34.5433 77.2501 33.1529 76.8855 31.8382 76.3238C31.1821 76.0451 30.5444 75.725 29.9459 75.3575C29.3373 75.0014 28.7742 74.5928 28.2353 74.1699C27.1721 73.3106 26.2405 72.356 25.493 71.3687C24.7993 70.4575 24.2002 69.4781 23.705 68.4456C23.25 67.5107 22.949 66.6394 22.7332 65.9071L22.5829 65.3844L22.473 64.9165C22.4033 64.6249 22.3463 64.3744 22.3155 64.1693L22.2034 63.5384L22.1707 63.355C22.074 62.8137 21.7846 62.3256 21.3558 61.9813C20.9271 61.6369 20.3881 61.4595 19.8387 61.482C19.2892 61.5044 18.7665 61.7251 18.3672 62.1032C17.9679 62.4813 17.7192 62.9913 17.6669 63.5387L17.5908 64.3339C17.561 64.5944 17.5441 64.9162 17.5302 65.2966L17.5072 65.9113L17.5121 66.6103C17.5276 67.5973 17.6021 68.8091 17.8513 70.1898C18.128 71.7555 18.5626 73.2891 19.1484 74.7671C19.7949 76.4106 20.7093 78.127 21.9056 79.8227C22.5112 80.6633 23.1784 81.5077 23.9363 82.31C24.6839 83.1236 25.5163 83.901 26.4184 84.6378C28.2194 86.1158 30.3282 87.4031 32.6577 88.3811C33.8213 88.8749 35.0432 89.2676 36.2969 89.5968L37.245 89.8178C37.34 89.8415 37.4466 89.8626 37.5564 89.8826C36.8981 90.5062 36.2561 91.1468 35.631 91.8038C34.3987 93.0919 33.2157 94.4282 32.0599 95.77C29.7466 98.4537 27.5124 101.18 25.2386 103.567C24.1032 104.761 22.9617 105.869 21.8175 106.83C20.674 107.797 19.5298 108.611 18.3989 109.251C17.8332 109.577 17.2713 109.836 16.7117 110.077C16.1531 110.297 15.5967 110.492 15.0442 110.63C13.9396 110.919 12.8434 111.011 11.788 110.983C10.7336 110.953 9.72651 110.782 8.82375 110.557C7.91775 110.342 7.12549 110.039 6.46706 109.791C5.8151 109.517 5.29568 109.291 4.94961 109.111L4.41171 108.849L4.22799 108.759C3.58766 108.448 2.85625 108.379 2.16935 108.566C1.48245 108.753 0.886646 109.183 0.492393 109.776C0.0981403 110.369 -0.0678221 111.084 0.025272 111.79C0.118366 112.496 0.464202 113.144 0.998669 113.614L1.54596 114.096C1.89786 114.416 2.44289 114.861 3.15932 115.419C3.89423 115.957 4.79699 116.617 5.95152 117.261C7.09795 117.911 8.47801 118.576 10.1134 119.099C11.7439 119.619 13.6356 120.005 15.6712 120.071C16.6893 120.111 17.7337 120.066 18.7943 119.963C19.8451 119.843 20.918 119.671 21.9675 119.416C24.0737 118.917 26.1317 118.165 28.0739 117.275C30.024 116.389 31.8684 115.367 33.6178 114.31C37.1177 112.191 40.2543 109.931 43.0537 108.04C44.4519 107.09 45.7597 106.235 46.9531 105.52C47.9764 104.902 48.9025 104.412 49.7207 104.032C49.1552 106.608 48.839 109.171 48.7093 111.649C48.6348 112.968 48.6099 114.262 48.6215 115.531L48.6332 116.479L48.6426 116.949L48.6491 117.184C48.6536 117.15 48.6403 117.303 48.6591 117.114L48.6588 117.142L48.6581 117.197L48.6568 117.306L48.6384 118.915C48.641 119.35 48.6241 119.852 48.6082 120.344C48.5846 120.829 48.5639 121.32 48.5289 121.798C48.4731 122.765 48.3701 123.705 48.2563 124.629C48.1365 125.552 47.9952 126.454 47.8137 127.32C47.6381 128.19 47.4404 129.035 47.2026 129.84C46.9701 130.623 46.7069 131.396 46.4136 132.158C46.1261 132.898 45.7943 133.588 45.4551 134.253C45.1245 134.897 44.7543 135.519 44.3466 136.117C43.9697 136.686 43.559 137.231 43.1168 137.751C42.6849 138.249 42.2507 138.724 41.8022 139.146C41.3721 139.551 40.9242 139.937 40.4598 140.302C39.6767 140.909 38.8476 141.454 37.98 141.932C37.4187 142.241 36.843 142.523 36.2548 142.778C35.863 142.952 35.6881 143.019 35.7869 143.019C33.914 143.019 32.3956 144.538 32.3956 146.411C32.3956 148.283 33.914 149.802 35.7869 149.802C35.9849 149.792 37.421 150.112 39.929 149.958C41.4431 149.861 42.9436 149.612 44.4081 149.216C45.3237 148.975 46.223 148.675 47.1005 148.32C48.0321 147.944 49.0045 147.502 49.9753 146.954C50.9923 146.387 51.9722 145.756 52.9091 145.065C53.9077 144.315 54.859 143.505 55.7574 142.638C56.6841 141.749 57.5561 140.764 58.3921 139.724C59.2388 138.669 60.0176 137.563 60.7239 136.41C62.1739 134.064 63.3829 131.578 64.3323 128.989C64.8141 127.699 65.241 126.39 65.6119 125.064C65.8066 124.403 65.9638 123.743 66.132 123.08C66.2856 122.418 66.4466 121.768 66.5821 121.043L66.9463 119.176L66.967 119.068L66.9774 119.015L66.9826 118.988C67.0033 118.782 66.992 118.916 66.9981 118.864L67.0461 118.664L67.1384 118.265L67.3241 117.477C67.5759 116.436 67.8228 115.43 68.0849 114.478C68.6043 112.566 69.1604 110.855 69.7475 109.394C70.0228 108.72 70.3105 108.052 70.6104 107.389C70.875 106.832 71.1504 106.28 71.4367 105.734C71.8534 104.979 72.2345 104.32 72.6188 103.727C73.0031 104.32 73.3842 104.978 73.8009 105.734C74.0872 106.28 74.3626 106.832 74.6272 107.389C74.9271 108.052 75.2148 108.72 75.4901 109.394C76.0769 110.855 76.6332 112.566 77.1527 114.478C77.4148 115.43 77.6617 116.436 77.9135 117.477L78.0992 118.265L78.1915 118.664L78.2395 118.864C78.2456 118.916 78.234 118.781 78.255 118.988L78.2602 119.015L78.2706 119.068L78.2913 119.176L78.6555 121.043C78.791 121.768 78.952 122.418 79.1056 123.08C79.2735 123.743 79.431 124.403 79.6257 125.064C79.9966 126.39 80.4235 127.699 80.9053 128.989C81.8549 131.578 83.0639 134.064 84.5137 136.41C85.22 137.563 85.9988 138.669 86.8455 139.724C87.6815 140.764 88.5535 141.749 89.4802 142.638C90.3783 143.505 91.3296 144.316 92.3285 145.065C93.2654 145.756 94.2453 146.387 95.2622 146.954C96.233 147.502 97.2051 147.944 98.1371 148.32C99.0147 148.675 99.9139 148.974 100.829 149.216C102.294 149.612 103.795 149.86 105.309 149.958C107.816 150.112 109.253 149.792 109.451 149.802C111.324 149.802 112.842 148.283 112.842 146.411C112.842 144.538 111.324 143.019 109.451 143.019C109.55 143.019 109.375 142.952 108.983 142.778C108.395 142.523 107.819 142.241 107.258 141.932C106.39 141.454 105.561 140.909 104.778 140.302C104.313 139.937 103.866 139.551 103.435 139.146C102.987 138.724 102.552 138.249 102.121 137.751C101.679 137.231 101.268 136.686 100.891 136.117C100.483 135.519 100.113 134.897 99.7825 134.253C99.4433 133.588 99.1114 132.898 98.824 132.158C98.5305 131.396 98.2673 130.623 98.035 129.84C97.7972 129.035 97.5995 128.19 97.4239 127.32C97.2424 126.454 97.1015 125.552 96.9812 124.629C96.8675 123.705 96.7648 122.765 96.7091 121.798C96.6741 121.32 96.653 120.829 96.6297 120.344C96.6141 119.853 96.5973 119.35 96.5995 118.915L96.5811 117.306L96.5798 117.197L96.5791 117.142L96.5788 117.114C96.5979 117.302 96.5846 117.15 96.5892 117.184L96.5956 116.949L96.605 116.479L96.6167 115.531C96.6284 114.262 96.6031 112.968 96.5289 111.649C96.3912 109.017 96.0464 106.288 95.4119 103.549C95.3799 103.413 95.3426 103.278 95.3083 103.142C95.5383 103.128 95.7749 103.115 96.0247 103.105C96.896 103.077 97.7682 103.1 98.6367 103.175C99.5865 103.257 100.607 103.416 101.691 103.691C102.774 103.969 103.926 104.348 105.128 104.903C105.732 105.169 106.345 105.493 106.974 105.834C107.601 106.192 108.242 106.572 108.891 107.002C110.191 107.855 111.529 108.859 112.913 109.969C114.299 111.079 115.729 112.294 117.268 113.539C118.806 114.779 120.47 116.063 122.381 117.203C124.272 118.341 126.53 119.312 128.865 119.675C130.024 119.857 131.18 119.907 132.254 119.813C133.325 119.717 134.326 119.532 135.215 119.263C137.012 118.746 138.4 118.006 139.552 117.329C140.697 116.641 141.581 115.972 142.298 115.421C143 114.858 143.532 114.41 143.879 114.093L144.416 113.614C145.385 112.751 145.7 111.314 145.092 110.098C144.92 109.752 144.68 109.444 144.388 109.19C144.096 108.937 143.757 108.743 143.39 108.621C143.023 108.499 142.636 108.45 142.25 108.477C141.864 108.505 141.487 108.608 141.141 108.781L141.004 108.85L140.451 109.126C140.093 109.312 139.562 109.558 138.895 109.85C138.226 110.126 137.414 110.45 136.513 110.699C135.617 110.941 134.622 111.141 133.69 111.118C132.748 111.107 131.921 110.911 131.176 110.5C130.427 110.096 129.665 109.482 128.792 108.545C127.924 107.617 126.992 106.423 126.002 105.056C125.011 103.693 123.96 102.175 122.807 100.604C121.654 99.0324 120.396 97.408 119 95.8235C118.305 95.0302 117.565 94.2516 116.806 93.4898C116.032 92.7348 115.245 91.9921 114.412 91.2935C113.703 90.6866 112.966 90.1156 112.218 89.5693C112.342 89.5596 112.466 89.5528 112.591 89.5408C113.694 89.4293 114.804 89.2543 115.901 88.9776C117.004 88.7229 118.084 88.3451 119.142 87.9099C121.246 87.0133 123.253 85.818 125.01 84.3566C126.768 82.8988 128.323 81.2232 129.585 79.4128C130.844 77.6011 131.849 75.6861 132.633 73.7552C134.198 69.884 134.916 65.981 135.165 62.2974C135.276 60.4539 135.274 58.6484 135.18 56.9054C135.168 56.4651 135.124 56.039 135.095 55.6077L135.01 54.5429L134.966 53.9943L134.945 53.7208C134.941 53.6866 134.939 53.6522 134.939 53.6178L134.937 53.5407C134.933 53.3275 134.912 53.148 134.908 52.9082C134.88 50.8797 135.117 49.0311 135.659 47.2943C135.925 46.4246 136.279 45.5938 136.661 44.7753C137.046 43.9608 137.482 43.1718 137.968 42.4131C138.442 41.6545 138.979 40.9458 139.501 40.2556C140.009 39.5868 140.544 38.9385 141.103 38.3124C142.185 37.1102 143.206 36.0477 144.092 35.1894C144.984 34.3372 145.7 33.6402 146.2 33.1794L146.974 32.4688C147.919 31.5945 148.299 30.1954 147.813 28.9171Z" fill="black"/>
<path d="M22.9519 120.105C21.0488 120.87 19.1711 120.656 18.7573 119.626C18.3435 118.597 19.5508 117.143 21.4539 116.378C23.3569 115.613 25.2347 115.827 25.6485 116.857C26.0619 117.886 24.8549 119.34 22.9519 120.105ZM58.6189 139.149C57.8292 138.37 56.0214 138.922 54.5811 140.382C53.1408 141.841 52.6132 143.657 53.4026 144.436C54.1923 145.215 56 144.663 57.4404 143.203C58.8807 141.743 59.4085 139.928 58.6189 139.149ZM67.2391 118.896C66.1948 118.522 64.7878 119.784 64.096 121.714C63.4045 123.645 63.6903 125.513 64.7344 125.888C65.7784 126.262 67.1857 125 67.8775 123.069C68.569 121.138 68.2832 119.27 67.2391 118.896ZM23.61 83.3865C24.6365 82.9662 24.8387 81.0868 24.0614 79.189C23.2843 77.2911 21.822 76.0931 20.7958 76.5134C19.7692 76.9337 19.567 78.8131 20.3444 80.7109C21.1214 82.6088 22.5838 83.8068 23.61 83.3865ZM11.5922 120.122C12.1541 119.166 11.1762 117.549 9.40792 116.51C7.63967 115.471 5.75056 115.404 5.18868 116.36C4.62681 117.317 5.60474 118.934 7.37299 119.973C9.14124 121.012 11.0304 121.079 11.5922 120.122ZM37.5836 110.542C36.9294 109.647 35.0565 109.901 33.4003 111.111C31.7442 112.321 30.9322 114.028 31.5867 114.924C32.2409 115.819 34.1138 115.565 35.77 114.355C37.4261 113.145 38.2381 111.438 37.5836 110.542ZM124.135 119.457C126.038 120.222 127.915 120.007 128.329 118.978C128.743 117.949 127.536 116.495 125.633 115.73C123.729 114.965 121.852 115.179 121.438 116.208C121.024 117.238 122.232 118.692 124.135 119.457ZM123.69 83.0064C122.041 84.2251 121.238 85.9363 121.897 86.8284C122.556 87.7204 124.428 87.4557 126.077 86.237C127.726 85.0183 128.529 83.3071 127.87 82.415C127.211 81.523 125.34 81.7877 123.69 83.0064ZM132.23 65.7626C131.708 67.746 132.155 69.5827 133.228 69.8649C134.3 70.1471 135.593 68.768 136.115 66.785C136.636 64.8019 136.19 62.9649 135.117 62.6827C134.044 62.4005 132.752 63.7792 132.23 65.7626ZM139.804 36.0899C138.311 37.4956 137.716 39.2898 138.476 40.0972C139.236 40.9051 141.063 40.4203 142.557 39.015C144.05 37.6093 144.645 35.8151 143.885 35.0077C143.125 34.1998 141.298 34.6846 139.804 36.0899ZM139.713 118.677C141.482 117.638 142.46 116.021 141.898 115.064C141.336 114.108 139.447 114.175 137.678 115.214C135.91 116.253 134.932 117.87 135.494 118.826C136.056 119.783 137.945 119.716 139.713 118.677ZM111.316 111.438C112.973 112.648 114.845 112.903 115.5 112.007C116.154 111.112 115.342 109.405 113.686 108.195C112.03 106.985 110.157 106.73 109.503 107.626C108.849 108.522 109.661 110.228 111.316 111.438Z" fill="black"/>
</svg>
