<svg width="150" height="150" viewBox="0 0 150 150" fill="none" xmlns="http://www.w3.org/2000/svg">
<path d="M0 75V150H150V0H0V75ZM120.872 69.0188C124.468 69.8654 127.736 71.7497 130.27 74.4375C131.639 75.9 133.688 78.5859 133.861 79.2469C133.908 79.4437 127.392 83.8125 123.436 86.2547C123.291 86.3531 122.705 85.7437 122.067 84.7875C120.141 81.9797 118.111 80.7609 115.012 80.5406C110.47 80.2453 107.541 82.6172 107.564 86.5969C107.54 87.5707 107.758 88.5353 108.197 89.4047C109.2 91.4812 111.08 92.7234 116.888 95.2406C127.631 99.8531 132.22 102.905 135.075 107.227C138.272 112.059 138.98 119.775 136.833 125.536C134.442 131.761 128.531 136.008 120.23 137.4C117.666 137.864 111.562 137.789 108.802 137.278C102.773 136.205 97.0594 133.223 93.5437 129.319C92.1516 127.805 89.4656 123.825 89.6391 123.558C89.7141 123.459 90.3234 123.07 91.0078 122.677L96.5766 119.452L100.898 116.939L101.803 118.28C103.073 120.206 105.83 122.845 107.494 123.722C112.28 126.262 118.847 125.897 122.095 122.991C123.413 121.894 124.148 120.206 124.05 118.5C124.05 116.766 123.83 115.987 122.925 114.689C121.753 113.03 119.386 111.614 112.622 108.684C104.883 105.338 101.536 103.289 98.5125 99.9938C96.6092 97.8247 95.2015 95.2669 94.3875 92.4984C93.825 90.375 93.6797 85.05 94.1203 82.9266C95.7094 75.4313 101.372 70.2328 109.5 68.6953C112.139 68.1844 118.289 68.3766 120.877 69.0141L120.872 69.0188ZM85.6687 75.2953L85.7156 81.4219H66.1828V136.917H52.3641V81.4219H32.8594V75.4172C32.8594 72.0703 32.9344 69.2906 33.0281 69.2156C33.1031 69.1172 44.9672 69.0703 59.3719 69.0938L85.5938 69.1687L85.6687 75.2953Z" fill="black"/>
</svg>
