<svg width="251" height="39" viewBox="0 0 251 39" fill="none" xmlns="http://www.w3.org/2000/svg">
<path d="M123.04 31L123.008 17.56L116.416 28.632H114.08L107.52 17.848V31H102.656V8.6H106.944L115.328 22.52L123.584 8.6H127.84L127.904 31H123.04ZM147.971 26.2H137.571L135.587 31H130.274L140.259 8.6H145.379L155.395 31H149.955L147.971 26.2ZM146.339 22.264L142.787 13.688L139.235 22.264H146.339ZM167.096 23.064V31H161.911V23L153.239 8.6H158.744L164.728 18.552L170.712 8.6H175.8L167.096 23.064ZM187.72 31.384C185.437 31.384 183.368 30.8933 181.512 29.912C179.677 28.9093 178.226 27.5333 177.16 25.784C176.114 24.0133 175.592 22.0187 175.592 19.8C175.592 17.5813 176.114 15.5973 177.16 13.848C178.226 12.0773 179.677 10.7013 181.512 9.72C183.368 8.71733 185.448 8.216 187.752 8.216C189.693 8.216 191.442 8.55733 193 9.24C194.578 9.92267 195.901 10.904 196.968 12.184L193.64 15.256C192.125 13.5067 190.248 12.632 188.008 12.632C186.621 12.632 185.384 12.9413 184.296 13.56C183.208 14.1573 182.354 15 181.736 16.088C181.138 17.176 180.84 18.4133 180.84 19.8C180.84 21.1867 181.138 22.424 181.736 23.512C182.354 24.6 183.208 25.4533 184.296 26.072C185.384 26.6693 186.621 26.968 188.008 26.968C190.248 26.968 192.125 26.0827 193.64 24.312L196.968 27.384C195.901 28.6853 194.578 29.6773 193 30.36C191.421 31.0427 189.661 31.384 187.72 31.384ZM210.848 31.384C208.522 31.384 206.421 30.8827 204.544 29.88C202.688 28.8773 201.226 27.5013 200.16 25.752C199.114 23.9813 198.592 21.9973 198.592 19.8C198.592 17.6027 199.114 15.6293 200.16 13.88C201.226 12.1093 202.688 10.7227 204.544 9.72C206.421 8.71733 208.522 8.216 210.848 8.216C213.173 8.216 215.264 8.71733 217.12 9.72C218.976 10.7227 220.437 12.1093 221.504 13.88C222.57 15.6293 223.104 17.6027 223.104 19.8C223.104 21.9973 222.57 23.9813 221.504 25.752C220.437 27.5013 218.976 28.8773 217.12 29.88C215.264 30.8827 213.173 31.384 210.848 31.384ZM210.848 26.968C212.17 26.968 213.365 26.6693 214.432 26.072C215.498 25.4533 216.33 24.6 216.928 23.512C217.546 22.424 217.856 21.1867 217.856 19.8C217.856 18.4133 217.546 17.176 216.928 16.088C216.33 15 215.498 14.1573 214.432 13.56C213.365 12.9413 212.17 12.632 210.848 12.632C209.525 12.632 208.33 12.9413 207.264 13.56C206.197 14.1573 205.354 15 204.736 16.088C204.138 17.176 203.84 18.4133 203.84 19.8C203.84 21.1867 204.138 22.424 204.736 23.512C205.354 24.6 206.197 25.4533 207.264 26.072C208.33 26.6693 209.525 26.968 210.848 26.968ZM247.544 8.6V31H243.288L232.12 17.4V31H227V8.6H231.288L242.424 22.2V8.6H247.544Z" fill="white"/>
<path d="M29.4516 1L0 30.4562L6.54377 37L29.4516 14.0922L52.3594 37L58.9032 30.4562L29.4516 1Z" fill="white"/>
<path d="M52.6371 1L43.5063 10.1354L50.0686 16.6606L52.6371 14.0922L75.5449 37L82.0887 30.4562L52.6371 1.00463V1Z" fill="#FFAD05"/>
</svg>
