<svg width="184" height="29" viewBox="0 0 184 29" fill="none" xmlns="http://www.w3.org/2000/svg">
<path d="M88.0056 23L87.9816 12.92L83.0376 21.224H81.2856L76.3656 13.136V23H72.7176V6.2H75.9336L82.2216 16.64L88.4136 6.2H91.6056L91.6536 23H88.0056ZM106.703 19.4H98.9035L97.4155 23H93.4315L100.919 6.2H104.759L112.271 23H108.191L106.703 19.4ZM105.479 16.448L102.815 10.016L100.151 16.448H105.479ZM121.047 17.048V23H117.159V17L110.655 6.2H114.783L119.271 13.664L123.759 6.2H127.575L121.047 17.048ZM136.515 23.288C134.803 23.288 133.251 22.92 131.859 22.184C130.483 21.432 129.395 20.4 128.595 19.088C127.811 17.76 127.419 16.264 127.419 14.6C127.419 12.936 127.811 11.448 128.595 10.136C129.395 8.808 130.483 7.776 131.859 7.04C133.251 6.288 134.811 5.912 136.539 5.912C137.995 5.912 139.307 6.168 140.475 6.68C141.659 7.192 142.651 7.928 143.451 8.888L140.955 11.192C139.819 9.88 138.411 9.224 136.731 9.224C135.691 9.224 134.763 9.456 133.947 9.92C133.131 10.368 132.491 11 132.027 11.816C131.579 12.632 131.355 13.56 131.355 14.6C131.355 15.64 131.579 16.568 132.027 17.384C132.491 18.2 133.131 18.84 133.947 19.304C134.763 19.752 135.691 19.976 136.731 19.976C138.411 19.976 139.819 19.312 140.955 17.984L143.451 20.288C142.651 21.264 141.659 22.008 140.475 22.52C139.291 23.032 137.971 23.288 136.515 23.288ZM153.861 23.288C152.117 23.288 150.541 22.912 149.133 22.16C147.741 21.408 146.645 20.376 145.845 19.064C145.061 17.736 144.669 16.248 144.669 14.6C144.669 12.952 145.061 11.472 145.845 10.16C146.645 8.832 147.741 7.792 149.133 7.04C150.541 6.288 152.117 5.912 153.861 5.912C155.605 5.912 157.173 6.288 158.565 7.04C159.957 7.792 161.053 8.832 161.853 10.16C162.653 11.472 163.053 12.952 163.053 14.6C163.053 16.248 162.653 17.736 161.853 19.064C161.053 20.376 159.957 21.408 158.565 22.16C157.173 22.912 155.605 23.288 153.861 23.288ZM153.861 19.976C154.853 19.976 155.749 19.752 156.549 19.304C157.349 18.84 157.973 18.2 158.421 17.384C158.885 16.568 159.117 15.64 159.117 14.6C159.117 13.56 158.885 12.632 158.421 11.816C157.973 11 157.349 10.368 156.549 9.92C155.749 9.456 154.853 9.224 153.861 9.224C152.869 9.224 151.973 9.456 151.173 9.92C150.373 10.368 149.741 11 149.277 11.816C148.829 12.632 148.605 13.56 148.605 14.6C148.605 15.64 148.829 16.568 149.277 17.384C149.741 18.2 150.373 18.84 151.173 19.304C151.973 19.752 152.869 19.976 153.861 19.976ZM181.383 6.2V23H178.191L169.815 12.8V23H165.975V6.2H169.191L177.543 16.4V6.2H181.383Z" fill="#1D1D1D"/>
<path d="M19.6344 3L0 22.6375L4.36251 27L19.6344 11.7281L34.9063 27L39.2688 22.6375L19.6344 3Z" fill="#1D1D1D"/>
<path d="M35.0916 3L29.0044 9.09024L33.3793 13.4404L35.0916 11.7281L50.3634 27L54.726 22.6375L35.0916 3.00309V3Z" fill="#FFAD05"/>
</svg>
